#!OML:ASF F:\VICON\USERDATA\INSTALL\rory3\rory3.ASF
:FULLY-SPECIFIED
:DEGREES
1
root -0.9195227817504597 17.206708669739808 -32.30618441199442 6.010079187739225 -2.111472211932109 -6.517096413087733
lfemur -25.867794594932622 7.1891324329478286 -10.752515638969928
ltibia 104.04897871155895
lfoot 7.526894529022502 -13.78738912285922
ltoes 0.37512416502439727
rfemur -22.146599128119405 3.958683264865684 34.871490333737206
rtibia 48.91780532278273
rfoot -22.27258096683491 -18.48458144274986
rtoes -5.583333962008441
lowerback 17.335690049695238 0.36203097166581577 3.1754954851968122
upperback 0.49069484734935975 1.4043405050051723 3.1135905047361288
thorax -9.227407679081576 0.606618987778994 1.220728874037158
lowerneck -21.859892131659286 -3.158843310539349 -1.3040921295966315
upperneck 12.282209281234563 -4.181433120011576 1.7646185364510067
head 7.388487947087515 -1.8849426012269772 0.2728408695964145
lclavicle -1.7288340304151369e-15 1.783627724873187e-15
lhumerus -52.440498920151974 -11.167904742102836 98.16349818656252
lradius 97.59631122590397
lwrist 29.294713496028102
lhand -25.807695728147845 2.837797161579227
lfingers 7.12502
lthumb 0.7315152675598282 32.81629713931114
rclavicle -1.7288340304151369e-15 1.783627724873187e-15
rhumerus -37.91551249608782 10.290996930429309 -93.68590800963668
rradius 101.15801375309883
rwrist -7.893628248016745
rhand -21.34317606096381 39.763600224382415
rfingers 7.12502
rthumb 5.042993662773912 9.843601318345542
2
root -0.931786458626883 17.324406746050375 -31.331782560042 5.5719614320187 -0.48884240703292614 -6.663795867744463
lfemur -30.741693315947586 6.4641042802633475 -10.839515717447478
ltibia 103.34597941898575
lfoot 6.3586553841726285 -12.34619114709272
ltoes 3.6952360500303953
rfemur -17.293101142766513 2.8147757872954533 35.17218960092834
rtibia 47.04810599020841
rfoot -21.217881167465592 -18.620681662532252
rtoes -9.811891838479042
lowerback 17.857887100109608 0.40995969268580423 3.3343850898857843
upperback -0.1061737211271836 1.6016997700910203 3.4916976091172502
thorax -10.19279427281235 0.6932301969032127 1.4985179693388406
lowerneck -20.121202298070965 -3.606789971855976 -2.104218909720374
upperneck 12.45170822666178 -4.573051117169325 1.6711894100441878
head 7.181713006870397 -2.133499854575068 0.3448631042445312
lclavicle -1.7288340496761044e-15 1.7836277309036644e-15
lhumerus -55.90339641077837 -11.191304803861858 99.59539329511158
lradius 99.38170954309187
lwrist 30.60500925963218
lhand -26.364792664225213 3.0741763787996987
lfingers 7.12502
lthumb 0.19339332134405174 33.05379632908705
rclavicle -1.7288340496761044e-15 1.7836277309036644e-15
rhumerus -38.574312007502655 10.73649616804672 -93.76500775400015
rradius 104.9830074532394
rwrist -11.383395476284283
rhand -22.007572988757495 40.16019769263505
rfingers 7.12502
rthumb 4.401477316247571 10.225898824427741
3
root -0.9290635610032113 17.499703911640065 -30.321583934290203 5.28606290134871 0.25938466136276017 -7.012274670527187
lfemur -34.54019056933055 6.248954772679879 -11.123314940172172
ltibia 100.76998205830998
lfoot 4.135516771699892 -10.758093927102754
ltoes -2.9559576758162933
rfemur -12.361503423703695 2.639756249236873 35.4655893340026
rtibia 44.98460572993683
rfoot -19.01688245846465 -17.169183779832853
rtoes -13.724589241268543
lowerback 18.06878593618422 0.9455073659629432 4.18721300861969
upperback -0.8950752886090497 2.5245463401485977 3.228789611590904
thorax -11.152681009669529 1.0564068586568163 0.48508421744648456
lowerneck -18.11431410523093 -4.074286508832448 -1.7175653006818037
upperneck 12.4509082201274 -5.30123744178912 1.3894320337646187
head 6.8438412275823834 -2.5061357378315496 0.14237109710205226
lclavicle -1.7288340650571737e-15 1.7836277164305134e-15
lhumerus -59.622194134645554 -12.210803071968446 100.32999091770978
lradius 100.84100767305178
lwrist 31.643706127903528
lhand -25.210499028316477 2.5463781517856976
lfingers 7.12502
lthumb 1.3082309655841708 32.522098122007506
rclavicle -1.7288340650571737e-15 1.7836277164305134e-15
rhumerus -40.070910212801905 9.603308099102875 -94.24490647714252
rradius 109.10200034149665
rwrist -12.476091501310506
rhand -20.173582093428998 39.83049979896186
rfingers 7.12502
rthumb 6.1722578789507345 9.940420685486659
4
root -0.8916915131689103 17.71290044968764 -29.2364854662317 5.439132120155282 -0.2494569711562299 -7.286443803229133
lfemur -36.76318919070954 6.873533257707329 -11.887413656563266
ltibia 96.27428156369737
lfoot -0.9779194576258388 -8.212788071944201
ltoes -14.590395848840956
rfemur -7.817445915133511 3.299724881934517 35.30578970900434
rtibia 42.61140768111302
rfoot -14.866185992520487 -14.669787547193145
rtoes -18.336185996847277
lowerback 16.287095784847 1.7602143290110739 4.831611215263321
upperback -0.6220001867694421 3.5805523680677536 3.1084105322702436
thorax -9.759420288771066 1.5522023306006143 -0.23175948735762286
lowerneck -18.91890928513818 -4.4418538030997405 -1.9507814466731621
upperneck 13.18040365729654 -5.742645205862272 1.4156217622166436
head 7.230471802045603 -2.7147434039323928 0.11160484520760128
lclavicle -1.7288339788678852e-15 1.7836277968368987e-15
lhumerus -61.301092584863845 -11.806003752573336 100.38899067461857
lradius 101.96000676310244
lwrist 31.841105457843376
lhand -27.59938589761926 1.665991096093474
lfingers 7.12502
lthumb -0.9990399735931692 31.643401060717977
rclavicle -1.7288339788678852e-15 1.7836277968368987e-15
rhumerus -39.09661084934639 10.053097362911505 -94.18540677303326
rradius 111.78499578995432
rwrist -12.70899063364678
rhand -20.990378223415718 40.9487926402858
rfingers 7.12502
rthumb 5.383632005935489 11.03719352269057
